<svg xmlns="http://www.w3.org/2000/svg" width="12.6" height="12.6" viewBox="0 0 12.6 12.6">
  <g id="Grupo_8545" data-name="Grupo 8545" transform="translate(-104.7 0.3)">
    <g id="Search" transform="translate(105)">
      <g id="Search-2" data-name="Search" fill="#272727">
        <path d="M 11.55606269836426 12.15000247955322 L 11.55605220794678 12.15000247955322 C 11.42850208282471 12.15000247955322 11.3068323135376 12.11086273193359 11.20417213439941 12.03682327270508 L 11.19939231872559 12.03337287902832 L 11.19490242004395 12.02956295013428 L 11.14522266387939 11.9874324798584 L 11.1412525177002 11.98406314849854 L 11.13752269744873 11.98042297363281 L 9.353852272033691 10.24104690551758 C 8.327537536621094 11.00807666778564 7.059059619903564 11.42903327941895 5.766652584075928 11.42903327941895 C 2.504202365875244 11.42903327941895 -0.1499975770711899 8.831982612609863 -0.1499975770711899 5.639782905578613 C -0.1499975770711899 2.447282791137695 2.504202365875244 -0.1499971449375153 5.766652584075928 -0.1499971449375153 C 9.029402732849121 -0.1499971449375153 11.68384265899658 2.447282791137695 11.68384265899658 5.639782905578613 C 11.68384265899658 7.042782306671143 11.16650485992432 8.38771915435791 10.22390747070312 9.443524360656738 L 11.97444248199463 11.15058326721191 C 12.0875825881958 11.26125240325928 12.14987277984619 11.40840244293213 12.15000247955322 11.56509304046631 C 12.15012264251709 11.72170257568359 12.08809280395508 11.86889266967773 11.97532272338867 11.97955322265625 C 11.86308288574219 12.08949279785156 11.7142219543457 12.14999294281006 11.55606269836426 12.15000247955322 Z M 5.766652584075928 1.018862843513489 C 3.159432411193848 1.018862843513489 1.038302421569824 3.091802835464478 1.038302421569824 5.639782905578613 C 1.038302421569824 8.187772750854492 3.159432411193848 10.26071262359619 5.766652584075928 10.26071262359619 C 8.374172210693359 10.26071262359619 10.49554252624512 8.187772750854492 10.49554252624512 5.639782905578613 C 10.49554252624512 3.091802835464478 8.374172210693359 1.018862843513489 5.766652584075928 1.018862843513489 Z" stroke="none"/>
        <path d="M 11.55605220794678 12.00000286102295 C 11.6697826385498 11.99999332427979 11.78345203399658 11.95752239227295 11.87026214599609 11.87249279022217 C 12.04360198974609 11.702392578125 12.04306221008301 11.42753314971924 11.86972236633301 11.25797271728516 L 10.0151424407959 9.44945240020752 C 10.95770263671875 8.445213317871094 11.53384208679199 7.10696268081665 11.53384208679199 5.639782905578613 C 11.53384208679199 2.529912948608398 8.946712493896484 2.86102294921875e-06 5.766652584075928 2.86102294921875e-06 C 2.587132453918457 2.86102294921875e-06 2.425384536763886e-06 2.529912948608398 2.425384536763886e-06 5.639782905578613 C 2.425384536763886e-06 8.749122619628906 2.587132453918457 11.27903270721436 5.766652584075928 11.27903270721436 C 7.126872539520264 11.27903270721436 8.378522872924805 10.81620311737061 9.36572265625 10.04311275482178 L 11.24224281311035 11.87303256988525 L 11.2919225692749 11.91516304016113 C 11.37032222747803 11.97171306610107 11.46319198608398 12.00000286102295 11.55605220794678 12.00000286102295 M 5.766652584075928 0.8688628673553467 C 8.456932067871094 0.8688628673553467 10.64554214477539 3.008892774581909 10.64554214477539 5.639782905578613 C 10.64554214477539 8.270683288574219 8.456932067871094 10.41071319580078 5.766652584075928 10.41071319580078 C 3.076912403106689 10.41071319580078 0.8883024454116821 8.270683288574219 0.8883024454116821 5.639782905578613 C 0.8883024454116821 3.008892774581909 3.076912403106689 0.8688628673553467 5.766652584075928 0.8688628673553467 M 11.5560827255249 12.30000305175781 L 11.55605220794678 12.30000305175781 C 11.39681243896484 12.30000305175781 11.24478244781494 12.25106239318848 11.11642265319824 12.15847301483154 L 11.09789276123047 12.14396286010742 L 11.03279209136963 12.08781242370605 L 9.33992862701416 10.43698787689209 C 8.306684494018555 11.1751823425293 7.048099994659424 11.57903289794922 5.766652584075928 11.57903289794922 C 2.421492338180542 11.57903289794922 -0.2999975681304932 8.914692878723145 -0.2999975681304932 5.639782905578613 C -0.2999975681304932 2.364572763442993 2.421492338180542 -0.2999971508979797 5.766652584075928 -0.2999971508979797 C 9.112112045288086 -0.2999971508979797 11.83384227752686 2.364572763442993 11.83384227752686 5.639782905578613 C 11.83384227752686 7.032224655151367 11.33742523193359 8.368880271911621 10.43017768859863 9.435152053833008 L 12.07917213439941 11.04319286346436 C 12.22153282165527 11.18245315551758 12.29984283447266 11.36764240264893 12.3000020980835 11.56497287750244 C 12.30015277862549 11.76223278045654 12.2221622467041 11.9474925994873 12.08038234710693 12.08661270141602 C 11.93984222412109 12.22427272796631 11.75371265411377 12.29998302459717 11.5560827255249 12.30000305175781 Z M 5.766652584075928 1.168862819671631 C 3.24214243888855 1.168862819671631 1.188302397727966 3.17451286315918 1.188302397727966 5.639782905578613 C 1.188302397727966 8.105062484741211 3.24214243888855 10.11071300506592 5.766652584075928 10.11071300506592 C 8.291462898254395 10.11071300506592 10.34554195404053 8.105062484741211 10.34554195404053 5.639782905578613 C 10.34554195404053 3.17451286315918 8.291462898254395 1.168862819671631 5.766652584075928 1.168862819671631 Z" stroke="none" fill="#fff"/>
      </g>
    </g>
  </g>
</svg>
